M48
; DRILL file {KiCad (6.99.0-5491-g7da98a447a)} date Mon 23 Jan 2023 18:35:09 CET
; FORMAT={-:-/ absolute / inch / decimal}
; #@! TF.CreationDate,2023-01-23T18:35:09+01:00
; #@! TF.GenerationSoftware,Kicad,Pcbnew,(6.99.0-5491-g7da98a447a)
; #@! TF.FileFunction,Plated,1,2,PTH
FMAT,2
INCH
; #@! TA.AperFunction,Plated,PTH,ViaDrill
T1C0.0787
; #@! TA.AperFunction,Plated,PTH,ViaDrill
T2C0.1024
; #@! TA.AperFunction,Plated,PTH,ViaDrill
T3C0.2362
; #@! TA.AperFunction,Plated,PTH,ViaDrill
T4C0.5709
%
G90
G05
T1
X5.3276Y-4.0575
X5.4346Y-4.4568
X5.6199Y-3.7652
X5.8339Y-4.5638
X6.0192Y-3.8722
X6.1262Y-4.2715
T2
X2.1496Y-6.4335
X2.1496Y-1.8956
X3.4579Y-0.5872
X3.458Y-7.7418
X7.9958Y-0.5872
X7.996Y-7.7418
X9.3042Y-6.4334
X9.3042Y-1.8955
T3
X2.3932Y-3.8728
X2.3932Y-4.4562
X2.4945Y-3.2984
X2.4945Y-5.0306
X2.694Y-2.7502
X2.694Y-5.5788
X2.7938Y-4.1645
X2.8384Y-3.6552
X2.8384Y-4.6738
X2.9707Y-3.1613
X2.9707Y-5.1677
X2.9857Y-2.245
X2.9857Y-6.0839
X3.1868Y-2.698
X3.1868Y-5.631
X3.3606Y-1.7982
X3.3606Y-1.7982
X3.3606Y-6.5308
X3.3606Y-6.5308
X3.48Y-2.2792
X3.48Y-6.0498
X3.48Y-2.2792
X3.8075Y-1.4232
X3.8075Y-6.9058
X3.8416Y-6.4114
X3.8416Y-6.4114
X3.8416Y-1.9176
X4.2604Y-6.7046
X4.2604Y-1.6244
X4.3126Y-1.1316
X4.3126Y-7.1974
X4.7237Y-6.9207
X4.7237Y-1.4083
X4.8608Y-0.9321
X4.8608Y-7.3969
X5.2176Y-7.053
X5.2176Y-1.276
X5.4352Y-0.8308
X5.4352Y-7.4982
X5.7269Y-7.0976
X5.7269Y-1.2314
X6.0186Y-0.8308
X6.0186Y-7.4982
X6.2362Y-7.053
X6.2362Y-1.276
X6.593Y-0.9321
X6.593Y-7.3969
X6.7301Y-6.9207
X6.7301Y-1.4083
X7.1412Y-1.1316
X7.1412Y-7.1974
X7.1934Y-6.7046
X7.1934Y-1.6244
X7.6122Y-6.4114
X7.6122Y-1.9176
X7.6122Y-1.9176
X7.6464Y-1.4232
X7.6464Y-6.9058
X7.9738Y-6.0498
X7.9738Y-2.2792
X7.9738Y-6.0498
X8.0932Y-1.7982
X8.0932Y-1.7982
X8.0932Y-6.5308
X8.0932Y-6.5308
X8.267Y-2.698
X8.267Y-5.631
X8.4682Y-2.245
X8.4682Y-6.0839
X8.4831Y-3.1613
X8.4831Y-5.1677
X8.6154Y-3.6552
X8.6154Y-4.6738
X8.66Y-4.1645
X8.7598Y-2.7502
X8.7598Y-5.5788
X8.9593Y-3.2984
X8.9593Y-5.0306
X9.0606Y-3.8728
X9.0606Y-4.4562
T4
X5.7269Y-4.1645
T0
M30
